<svg xmlns="http://www.w3.org/2000/svg" width="229.765" height="196.103" viewBox="0 0 229.765 196.103"><g transform="translate(76.627 7.195)" fill="none" stroke="rgba(0,208,158,0.65)" stroke-linecap="round" stroke-linejoin="round" stroke-width="10"><ellipse cx="39.356" cy="93.568" rx="39.356" ry="93.568" stroke="none"/><ellipse cx="39.356" cy="93.568" rx="34.356" ry="88.568" fill="none"/></g><g transform="matrix(0.574, 0.819, -0.819, 0.574, 181.382, 0)" fill="none" stroke="rgba(0,208,158,0.65)" stroke-linecap="round" stroke-linejoin="round" stroke-width="10"><ellipse cx="42.176" cy="110.713" rx="42.176" ry="110.713" stroke="none"/><ellipse cx="42.176" cy="110.713" rx="37.176" ry="105.713" fill="none"/></g><g transform="matrix(-0.574, 0.819, -0.819, -0.574, 229.765, 127.005)" fill="none" stroke="rgba(0,208,158,0.65)" stroke-linecap="round" stroke-linejoin="round" stroke-width="10"><ellipse cx="42.176" cy="110.713" rx="42.176" ry="110.713" stroke="none"/><ellipse cx="42.176" cy="110.713" rx="37.176" ry="105.713" fill="none"/></g><g transform="translate(113.349 93.474)"><path d="M33,45h3.566a1.632,1.632,0,1,1,0,3.25h-2.5" transform="translate(-33 -42.517)" fill="none" stroke="rgba(0,208,158,0.65)" stroke-linecap="round" stroke-linejoin="round" stroke-width="2"/><path d="M33,59.55h4.856c3.545,0,3.545-4.225,0-4.55H34.041" transform="translate(-33 -48.887)" fill="none" stroke="rgba(0,208,158,0.65)" stroke-linecap="round" stroke-linejoin="round" stroke-width="2"/><line y2="13.18" transform="translate(0.975)" fill="none" stroke="rgba(0,208,158,0.65)" stroke-linecap="round" stroke-linejoin="round" stroke-width="2"/><line y2="2.275" transform="translate(3.122)" fill="none" stroke="rgba(0,208,158,0.65)" stroke-linecap="round" stroke-linejoin="round" stroke-width="2"/><line y2="2.275" transform="translate(3.122 10.905)" fill="none" stroke="rgba(0,208,158,0.65)" stroke-linecap="round" stroke-linejoin="round" stroke-width="2"/></g><g transform="translate(102.69 86.428)" fill="none" stroke="rgba(0,208,158,0.65)" stroke-width="2"><circle cx="13.292" cy="13.292" r="13.292" stroke="none"/><circle cx="13.292" cy="13.292" r="12.292" fill="none"/></g></svg>