<svg xmlns="http://www.w3.org/2000/svg" width="229.765" height="196.103" viewBox="0 0 229.765 196.103"><defs><style>.a,.b,.c,.e{fill:none;}.a,.b,.c{stroke:rgba(0,208,158,0.65);}.a,.b{stroke-linecap:round;stroke-linejoin:round;}.a{stroke-width:10px;}.b,.c{stroke-width:2px;}.d{stroke:none;}</style></defs><g transform="translate(0 0)"><g transform="translate(0 0)"><g class="a" transform="translate(76.627 7.195)"><ellipse class="d" cx="39.356" cy="93.568" rx="39.356" ry="93.568"/><ellipse class="e" cx="39.356" cy="93.568" rx="34.356" ry="88.568"/></g><g class="a" transform="matrix(-0.574, 0.819, -0.819, -0.574, 229.765, 127.005)"><ellipse class="d" cx="42.176" cy="110.713" rx="42.176" ry="110.713"/><ellipse class="e" cx="42.176" cy="110.713" rx="37.176" ry="105.713"/></g><g transform="translate(113.349 93.474)"><path class="b" d="M33,45h3.566a1.632,1.632,0,1,1,0,3.25h-2.5" transform="translate(-33 -42.517)"/><path class="b" d="M33,59.55h4.856c3.545,0,3.545-4.225,0-4.55H34.041" transform="translate(-33 -48.887)"/><line class="b" y2="13.18" transform="translate(0.975)"/><line class="b" y2="2.275" transform="translate(3.122)"/><line class="b" y2="2.275" transform="translate(3.122 10.905)"/></g><g class="c" transform="translate(102.69 86.428)"><circle class="d" cx="13.292" cy="13.292" r="13.292"/><circle class="e" cx="13.292" cy="13.292" r="12.292"/></g></g></g></svg>